<svg height="512pt" viewBox="-16 0 512 512" width="512pt" xmlns="http://www.w3.org/2000/svg"><path d="m120 241v150h180v-45l60 45v-150l-60 45v-45zm210 60v30l-20-15zm-60 60h-120v-90h120zm0 0"/><path d="m180 301h30v30h-30zm0 0"/><path d="m240 0c-115.792969 0-210 94.207031-210 210v31h-30v150h90v-150h-30v-31h60c0-66.167969 53.832031-120 120-120 61.273438 0 112.546875 45.847656 119.265625 106.648438l1.476563 13.351562h59.257812v31h-30v211h-90v-30h-120v90h120v-30h120v-91h60v-150h-30v-31c0-115.792969-94.207031-210-210-210zm-180 361h-30v-90h30zm180-301c-72.4375 0-133.046875 51.617188-146.984375 120h-30.5c14.324219-85.019531 88.453125-150 177.484375-150s163.160156 64.980469 177.484375 150h-30.480469c-13.984375-69.285156-74.96875-120-147.003906-120zm30 422h-60v-30h60zm180-121h-30v-90h30zm0 0"/></svg>