<?xml version="1.0"?>
<svg xmlns="http://www.w3.org/2000/svg" xmlns:xlink="http://www.w3.org/1999/xlink" style="enable-background:new 0 0 512 512;" version="1.1" viewBox="0 0 512 512" xml:space="preserve" fill="#ffffff">
  <style type="text/css">
	.st0{fill: #ffffff;}
	.st1{fill: #ffffff;stroke: #ffffff;stroke-width:32;stroke-linecap:round;stroke-linejoin:round;stroke-miterlimit:10;}
</style>
  <g id="Layer_1"/>
  <g id="Layer_2">
    <g>
      <path class="st0" d="M433.45,274.43H237.57V78.55c0-19.33-15.72-35.05-35.05-35.05H78.55c-19.33,0-35.05,15.72-35.05,35.05v237.44    c0,19.32,15.72,35.04,35.05,35.04h82.42v82.41c0,19.33,15.72,35.05,35.04,35.05h237.44c19.33,0,35.05-15.72,35.05-35.05V309.48    C468.5,290.16,452.78,274.43,433.45,274.43z M78.55,321.28c-2.92,0-5.29-2.37-5.29-5.28V78.55c0-2.92,2.37-5.29,5.29-5.29h123.97    c2.92,0,5.29,2.37,5.29,5.29v195.88h-11.8c-19.32,0-35.04,15.72-35.04,35.05v11.79H78.55z M438.74,433.45    c0,2.92-2.37,5.29-5.29,5.29H196.01c-2.91,0-5.28-2.37-5.28-5.29v-97.29v-26.67c0-2.74,2.08-4.99,4.74-5.26    c0.18-0.02,0.36-0.03,0.54-0.03h26.68h210.76c2.92,0,5.29,2.37,5.29,5.29V433.45z"/>
    </g>
    <g>
      <path class="st0" d="M456.45,183.79c-6.25-6.25-16.38-6.25-22.63,0l-13.59,13.59v-86.58c0-8.84-7.16-16-16-16h-86.29l15.95-15.95    c6.25-6.25,6.25-16.38,0-22.63c-6.25-6.25-16.38-6.25-22.63,0l-40.33,40.33c-5.19,2.65-8.75,8.03-8.75,14.25    c0,0.19,0.02,0.37,0.03,0.56c-0.01,0.19-0.03,0.38-0.03,0.57c0,4.24,1.69,8.31,4.69,11.31l42.14,42.14    c3.12,3.12,7.22,4.69,11.31,4.69s8.19-1.56,11.31-4.69c6.25-6.25,6.25-16.38,0-22.63l-15.95-15.95h72.54v73.05l-18.31-18.31    c-6.25-6.25-16.38-6.25-22.63,0c-6.25,6.25-6.25,16.38,0,22.63l44.39,44.39c3.12,3.13,7.22,4.69,11.31,4.69    c0.21,0,0.42-0.02,0.63-0.03c0.2,0.01,0.4,0.03,0.6,0.03c6.31,0,11.74-3.66,14.35-8.96l37.86-37.86    C462.7,200.16,462.7,190.03,456.45,183.79z"/>
    </g>
  </g>
</svg>
