<?xml version="1.0" encoding="UTF-8"?>
<svg xmlns="http://www.w3.org/2000/svg" xmlns:xlink="http://www.w3.org/1999/xlink" width="64pt" height="64pt" viewBox="0 0 64 64" version="1.1">
<g id="surface47964259">
<path style=" stroke:none;fill-rule:nonzero;fill:rgb(100%,100%,100%);fill-opacity:1;" d="M 22.875 10 L 22.3125 10.9375 L 6.3125 36.9375 L 5.6875 37.9375 L 6.25 39 L 14.25 53 L 14.8125 54 L 49.1875 54 L 49.75 53 L 57.75 39 L 58.3125 37.9375 L 57.6875 36.9375 L 41.6875 10.9375 L 41.125 10 Z M 27.5625 14 L 38.875 14 L 52.4375 36 L 41.125 36 Z M 24 15.8125 L 29.9375 25.5 L 16.0625 48.0625 L 10.3125 38 Z M 32.3125 29.3125 L 36.4375 36 L 28.1875 36 Z M 25.75 40 L 52.5625 40 L 46.8125 50 L 19.5625 50 Z M 25.75 40 "/>
</g>
</svg>
